<?xml version="1.0" encoding="UTF-8" standalone="no"?>
<!-- Created with Inkscape (http://www.inkscape.org/) -->

<svg
   width="210mm"
   height="297mm"
   viewBox="0 0 210 297"
   version="1.1"
   id="svg5"
   inkscape:version="1.1.1 (3bf5ae0d25, 2021-09-20)"
   sodipodi:docname="CollabCity Logo Colour Variant.svg"
   inkscape:export-filename="/home/greg/Seafile/DND/CollabCity Logo.png"
   inkscape:export-xdpi="300"
   inkscape:export-ydpi="300"
   xmlns:inkscape="http://www.inkscape.org/namespaces/inkscape"
   xmlns:sodipodi="http://sodipodi.sourceforge.net/DTD/sodipodi-0.dtd"
   xmlns:xlink="http://www.w3.org/1999/xlink"
   xmlns="http://www.w3.org/2000/svg"
   xmlns:svg="http://www.w3.org/2000/svg">
  <sodipodi:namedview
     id="namedview7"
     pagecolor="#ffffff"
     bordercolor="#666666"
     borderopacity="1.0"
     inkscape:pageshadow="2"
     inkscape:pageopacity="0.0"
     inkscape:pagecheckerboard="0"
     inkscape:document-units="mm"
     showgrid="false"
     showborder="false"
     inkscape:zoom="2.771108"
     inkscape:cx="415.71819"
     inkscape:cy="473.63726"
     inkscape:window-width="1920"
     inkscape:window-height="1011"
     inkscape:window-x="0"
     inkscape:window-y="0"
     inkscape:window-maximized="1"
     inkscape:current-layer="layer1" />
  <defs
     id="defs2">
    <inkscape:path-effect
       effect="attach_path"
       id="path-effect29662"
       lpeversion="1" />
    <inkscape:path-effect
       effect="skeletal"
       id="path-effect1813"
       is_visible="true"
       lpeversion="1"
       pattern="m 117.85792,107.27873 -0.81235,9.46971 h -0.41341 l -1.07022,4.54287 v 12.23905 h -3.55534 v -9.98647 h -8.15713 v 7.0559 h -3.851958 v 6.1774 H 97.69791 v -3.07682 h -3.573426 v -6.60528 h -7.160802 v 9.6821 h -2.007629 a 34.387488,34.387488 0 0 0 32.901867,24.41039 34.387488,34.387488 0 0 0 32.90548,-24.41039 h -2.10426 v -4.63124 h -3.62562 V 127.678 c 0,-0.13059 -0.10506,-0.23565 -0.23564,-0.23564 h -9.34207 c -0.13058,-10e-6 -0.23564,0.10505 -0.23564,0.23564 v 4.29483 a 6.2875318,4.8604535 0 0 0 -3.31349,-0.72916 6.2875318,4.8604535 0 0 0 -5.58726,2.63705 v -3.70571 h -6.16552 v -8.8837 l -1.0697,-4.54287 h -0.41393 z"
       copytype="single_stretched"
       prop_scale="1"
       scale_y_rel="false"
       spacing="0"
       normal_offset="0"
       tang_offset="0"
       prop_units="false"
       vertical_pattern="false"
       hide_knot="false"
       fuse_tolerance="0" />
    <inkscape:path-effect
       effect="skeletal"
       id="path-effect1769"
       is_visible="true"
       lpeversion="1"
       pattern="m 117.85792,107.27873 -0.81235,9.46971 h -0.41341 l -1.07022,4.54287 v 12.23905 h -3.55534 v -9.98647 h -8.15713 v 7.0559 h -3.851958 v 6.1774 H 97.69791 v -3.07682 h -3.573426 v -6.60528 h -7.160802 v 9.6821 h -2.007629 a 34.387488,34.387488 0 0 0 32.901867,24.41039 34.387488,34.387488 0 0 0 32.90548,-24.41039 h -2.10426 v -4.63124 h -3.62562 V 127.678 c 0,-0.13059 -0.10506,-0.23565 -0.23564,-0.23564 h -9.34207 c -0.13058,-10e-6 -0.23564,0.10505 -0.23564,0.23564 v 4.29483 a 6.2875318,4.8604535 0 0 0 -3.31349,-0.72916 6.2875318,4.8604535 0 0 0 -5.58726,2.63705 v -3.70571 h -6.16552 v -8.8837 l -1.0697,-4.54287 h -0.41393 z"
       copytype="single_stretched"
       prop_scale="1"
       scale_y_rel="false"
       spacing="0"
       normal_offset="0"
       tang_offset="0"
       prop_units="false"
       vertical_pattern="false"
       hide_knot="false"
       fuse_tolerance="0" />
    <inkscape:path-effect
       effect="skeletal"
       id="path-effect1725"
       is_visible="true"
       lpeversion="1"
       pattern="m 117.85792,107.27873 -0.81235,9.46971 h -0.41341 l -1.07022,4.54287 v 12.23905 h -3.55534 v -9.98647 h -8.15713 v 7.0559 h -3.851958 v 6.1774 H 97.69791 v -3.07682 h -3.573426 v -6.60528 h -7.160802 v 9.6821 h -2.007629 a 34.387488,34.387488 0 0 0 32.901867,24.41039 34.387488,34.387488 0 0 0 32.90548,-24.41039 h -2.10426 v -4.63124 h -3.62562 V 127.678 c 0,-0.13059 -0.10506,-0.23565 -0.23564,-0.23564 h -9.34207 c -0.13058,-10e-6 -0.23564,0.10505 -0.23564,0.23564 v 4.29483 a 6.2875318,4.8604535 0 0 0 -3.31349,-0.72916 6.2875318,4.8604535 0 0 0 -5.58726,2.63705 v -3.70571 h -6.16552 v -8.8837 l -1.0697,-4.54287 h -0.41393 z"
       copytype="single_stretched"
       prop_scale="1"
       scale_y_rel="false"
       spacing="0"
       normal_offset="0"
       tang_offset="0"
       prop_units="false"
       vertical_pattern="false"
       hide_knot="false"
       fuse_tolerance="0" />
    <inkscape:path-effect
       effect="skeletal"
       id="path-effect1255"
       is_visible="true"
       lpeversion="1"
       pattern="m 117.85792,107.27873 -0.81235,9.46971 h -0.41341 l -1.07022,4.54287 v 12.23905 h -3.55534 v -9.98647 h -8.15713 v 7.0559 h -3.851958 v 6.1774 H 97.69791 v -3.07682 h -3.573426 v -6.60528 h -7.160802 v 9.6821 h -2.007629 a 34.387488,34.387488 0 0 0 32.901867,24.41039 34.387488,34.387488 0 0 0 32.90548,-24.41039 h -2.10426 v -4.63124 h -3.62562 V 127.678 c 0,-0.13059 -0.10506,-0.23565 -0.23564,-0.23564 h -9.34207 c -0.13058,-10e-6 -0.23564,0.10505 -0.23564,0.23564 v 4.29483 a 6.2875318,4.8604535 0 0 0 -3.31349,-0.72916 6.2875318,4.8604535 0 0 0 -5.58726,2.63705 v -3.70571 h -6.16552 v -8.8837 l -1.0697,-4.54287 h -0.41393 z"
       copytype="single_stretched"
       prop_scale="1"
       scale_y_rel="false"
       spacing="0"
       normal_offset="0"
       tang_offset="0"
       prop_units="false"
       vertical_pattern="false"
       hide_knot="false"
       fuse_tolerance="0" />
    <inkscape:path-effect
       effect="skeletal"
       id="path-effect1178"
       is_visible="true"
       lpeversion="1"
       pattern="m 117.85792,107.27873 -0.81235,9.46971 h -0.41341 l -1.07022,4.54287 v 12.23905 h -3.55534 v -9.98647 h -8.15713 v 7.0559 h -3.851958 v 6.1774 H 97.69791 v -3.07682 h -3.573426 v -6.60528 h -7.160802 v 9.6821 h -2.007629 a 34.387488,34.387488 0 0 0 32.901867,24.41039 34.387488,34.387488 0 0 0 32.90548,-24.41039 h -2.10426 v -4.63124 h -3.62562 V 127.678 c 0,-0.13059 -0.10506,-0.23565 -0.23564,-0.23564 h -9.34207 c -0.13058,-10e-6 -0.23564,0.10505 -0.23564,0.23564 v 4.29483 a 6.2875318,4.8604535 0 0 0 -3.31349,-0.72916 6.2875318,4.8604535 0 0 0 -5.58726,2.63705 v -3.70571 h -6.16552 v -8.8837 l -1.0697,-4.54287 h -0.41393 z"
       copytype="single_stretched"
       prop_scale="1"
       scale_y_rel="false"
       spacing="0"
       normal_offset="0"
       tang_offset="0"
       prop_units="false"
       vertical_pattern="false"
       hide_knot="false"
       fuse_tolerance="0" />
    <inkscape:path-effect
       effect="skeletal"
       id="path-effect1049"
       is_visible="true"
       lpeversion="1"
       pattern="m 117.85792,107.27873 -0.81235,9.46971 h -0.41341 l -1.07022,4.54287 v 12.23905 h -3.55534 v -9.98647 h -8.15713 v 7.0559 h -3.851958 v 6.1774 H 97.69791 v -3.07682 h -3.573426 v -6.60528 h -7.160802 v 9.6821 h -2.007629 a 34.387488,34.387488 0 0 0 32.901867,24.41039 34.387488,34.387488 0 0 0 32.90548,-24.41039 h -2.10426 v -4.63124 h -3.62562 V 127.678 c 0,-0.13059 -0.10506,-0.23565 -0.23564,-0.23564 h -9.34207 c -0.13058,-10e-6 -0.23564,0.10505 -0.23564,0.23564 v 4.29483 a 6.2875318,4.8604535 0 0 0 -3.31349,-0.72916 6.2875318,4.8604535 0 0 0 -5.58726,2.63705 v -3.70571 h -6.16552 v -8.8837 l -1.0697,-4.54287 h -0.41393 z"
       copytype="single_stretched"
       prop_scale="1"
       scale_y_rel="false"
       spacing="0"
       normal_offset="0"
       tang_offset="0"
       prop_units="false"
       vertical_pattern="false"
       hide_knot="false"
       fuse_tolerance="0" />
    <inkscape:path-effect
       effect="skeletal"
       id="path-effect1005"
       is_visible="true"
       lpeversion="1"
       pattern="m 117.85792,107.27873 -0.81235,9.46971 h -0.41341 l -1.07022,4.54287 v 12.23905 h -3.55534 v -9.98647 h -8.15713 v 7.0559 h -3.851958 v 6.1774 H 97.69791 v -3.07682 h -3.573426 v -6.60528 h -7.160802 v 9.6821 h -2.007629 a 34.387488,34.387488 0 0 0 32.901867,24.41039 34.387488,34.387488 0 0 0 32.90548,-24.41039 h -2.10426 v -4.63124 h -3.62562 V 127.678 c 0,-0.13059 -0.10506,-0.23565 -0.23564,-0.23564 h -9.34207 c -0.13058,-10e-6 -0.23564,0.10505 -0.23564,0.23564 v 4.29483 a 6.2875318,4.8604535 0 0 0 -3.31349,-0.72916 6.2875318,4.8604535 0 0 0 -5.58726,2.63705 v -3.70571 h -6.16552 v -8.8837 l -1.0697,-4.54287 h -0.41393 z"
       copytype="single_stretched"
       prop_scale="1"
       scale_y_rel="false"
       spacing="0"
       normal_offset="0"
       tang_offset="0"
       prop_units="false"
       vertical_pattern="false"
       hide_knot="false"
       fuse_tolerance="0" />
    <linearGradient
       inkscape:collect="always"
       id="linearGradient1256">
      <stop
         style="stop-color:#ff7f2a;stop-opacity:1"
         offset="0"
         id="stop1252" />
      <stop
         style="stop-color:#4400aa;stop-opacity:1"
         offset="1"
         id="stop1254" />
    </linearGradient>
    <linearGradient
       inkscape:collect="always"
       xlink:href="#linearGradient1256"
       id="linearGradient2139"
       gradientUnits="userSpaceOnUse"
       x1="462.99994"
       y1="480.01874"
       x2="464.22815"
       y2="349.31543" />
    <filter
       inkscape:collect="always"
       style="color-interpolation-filters:sRGB"
       id="filter32495"
       x="-0.29443609"
       y="-0.061626568"
       width="1.5888731"
       height="1.1232531">
      <feGaussianBlur
         inkscape:collect="always"
         stdDeviation="0.70060911"
         id="feGaussianBlur32497" />
    </filter>
    <filter
       inkscape:collect="always"
       style="color-interpolation-filters:sRGB"
       id="filter32499"
       x="-0.033148949"
       y="-0.040455894"
       width="1.0662979"
       height="1.0809216">
      <feGaussianBlur
         inkscape:collect="always"
         stdDeviation="0.70060911"
         id="feGaussianBlur32501" />
    </filter>
    <filter
       inkscape:collect="always"
       style="color-interpolation-filters:sRGB"
       id="filter33104"
       x="-0.15093871"
       y="-0.026326015"
       width="1.3018782"
       height="1.052652">
      <feGaussianBlur
         inkscape:collect="always"
         stdDeviation="0.29929049"
         id="feGaussianBlur33106" />
    </filter>
    <filter
       inkscape:collect="always"
       style="color-interpolation-filters:sRGB"
       id="filter33108"
       x="-0.016993289"
       y="-0.020736341"
       width="1.0339866"
       height="1.0414806">
      <feGaussianBlur
         inkscape:collect="always"
         stdDeviation="0.29929049"
         id="feGaussianBlur33110" />
    </filter>
    <filter
       inkscape:collect="always"
       style="color-interpolation-filters:sRGB"
       id="filter33346"
       x="-0.1780437"
       y="-0.037351226"
       width="1.356088"
       height="1.0747025">
      <feGaussianBlur
         inkscape:collect="always"
         stdDeviation="0.42463191"
         id="feGaussianBlur33344" />
    </filter>
    <filter
       inkscape:collect="always"
       style="color-interpolation-filters:sRGB"
       id="filter33350"
       x="-0.020044968"
       y="-0.024463478"
       width="1.0400899"
       height="1.0489329">
      <feGaussianBlur
         inkscape:collect="always"
         stdDeviation="0.42463191"
         id="feGaussianBlur33348" />
    </filter>
  </defs>
  <g
     inkscape:label="Layer 1"
     inkscape:groupmode="layer"
     id="layer1">
    <path
       id="path31"
       style="stroke-width:1.95402;stroke-linecap:round;fill-opacity:1;fill:url(#linearGradient2139)"
       d="M 445.44727 349.27539 A 129.96846 129.96846 0 0 0 392.22461 360.71875 L 498.76367 360.71875 A 129.96846 129.96846 0 0 0 445.44727 349.27539 z M 368.67188 374.5 A 129.96846 129.96846 0 0 0 354.14062 386.9043 L 536.90039 386.9043 A 129.96846 129.96846 0 0 0 522.37109 374.5 L 368.67188 374.5 z M 341.98047 400.67969 A 129.96846 129.96846 0 0 0 333.70703 413.08398 L 444.79297 413.08398 L 445.44727 405.46289 L 446.10156 413.08398 L 557.3125 413.08398 A 129.96846 129.96846 0 0 0 548.97461 400.67969 L 341.98047 400.67969 z M 326.50977 426.86523 A 129.96846 129.96846 0 0 0 321.85742 439.26953 L 442.54688 439.26953 L 443.61133 426.86523 L 326.50977 426.86523 z M 447.2832 426.86523 L 448.34766 439.26953 L 569.10938 439.26953 A 129.96846 129.96846 0 0 0 564.38477 426.86523 L 447.2832 426.86523 z M 318.25781 453.04883 A 129.96846 129.96846 0 0 0 316.30469 465.44922 L 436.76953 465.44922 L 436.76953 458.42383 L 438.03516 453.04883 L 318.25781 453.04883 z M 452.85938 453.04883 L 454.125 458.42383 L 454.125 465.44922 L 574.67383 465.44922 A 129.96846 129.96846 0 0 0 572.73828 453.04883 L 452.85938 453.04883 z M 315.47852 479.22852 A 129.96846 129.96846 0 0 0 315.47852 479.24414 A 129.96846 129.96846 0 0 0 316.15234 491.63477 L 328.68164 491.63477 L 328.68164 480.35938 L 355.74609 480.35938 L 355.74609 491.63477 L 392.50195 491.63477 L 392.50195 479.22852 L 315.47852 479.22852 z M 423.33203 479.22852 L 423.33203 491.63477 L 436.76953 491.63477 L 436.76953 479.22852 L 423.33203 479.22852 z M 454.125 479.22852 L 454.125 491.63477 L 511.06836 491.63477 L 511.06836 482.5625 C 511.06836 482.06893 511.46545 481.67187 511.95898 481.67188 L 547.26758 481.67188 C 547.76111 481.67188 548.1582 482.06893 548.1582 482.5625 L 548.1582 491.63477 L 574.74805 491.63477 A 129.96846 129.96846 0 0 0 575.41602 479.24414 A 129.96846 129.96846 0 0 0 575.41602 479.22852 L 454.125 479.22852 z M 318.22461 505.41406 A 129.96846 129.96846 0 0 0 321.09375 516.95312 L 328.68164 516.95312 L 328.68164 505.41406 L 318.22461 505.41406 z M 369.25195 505.41406 L 369.25195 516.95312 L 377.94336 516.95312 L 377.94336 505.41406 L 369.25195 505.41406 z M 477.42773 505.41406 L 477.42773 506.00586 A 23.7639 18.370218 0 0 1 477.91406 505.41406 L 477.42773 505.41406 z M 561.86133 505.41406 L 561.86133 516.95312 L 569.81445 516.95312 A 129.96846 129.96846 0 0 0 572.68164 505.41406 L 561.86133 505.41406 z "
       transform="scale(0.26458333)" />
    <path
       id="circle963"
       style="fill:#11002b;stroke-width:0.517001;stroke-linecap:round"
       d="m 117.85792,107.27873 -0.81235,9.46971 h -0.41341 l -1.07022,4.54287 v 12.23905 h -3.55534 v -9.98647 h -8.15713 v 7.0559 h -3.851958 v 6.1774 H 97.69791 v -3.07682 h -3.573426 v -6.60528 h -7.160802 v 9.6821 h -2.007629 c 4.394527,14.49484 17.755507,24.40755 32.901867,24.41039 15.1477,-0.001 28.51057,-9.91427 32.90548,-24.41039 h -2.10426 v -4.63124 h -3.62562 V 127.678 c 0,-0.13059 -0.10506,-0.23565 -0.23564,-0.23564 h -9.34207 c -0.13058,-10e-6 -0.23564,0.10505 -0.23564,0.23564 v 4.29483 c -0.99514,-0.47679 -2.14272,-0.72932 -3.31349,-0.72916 -2.35419,0.001 -4.51034,1.01876 -5.58726,2.63705 v -3.70571 h -6.16552 v -8.8837 l -1.0697,-4.54287 h -0.41393 z"
       sodipodi:nodetypes="cccccccccccccccccccccccsccsccccccccc" />
    <path
       id="path829"
       style="fill:none;stroke:#c500a0;stroke-width:1;stroke-linecap:round;stroke-linejoin:round;stroke-miterlimit:4;stroke-dasharray:none;stroke-opacity:1;filter:url(#filter32499)"
       d="m 117.85792,107.27873 -0.81235,9.46971 h -0.41341 l -1.07022,4.54287 v 12.23905 h -3.55534 v -9.98647 h -8.15713 v 7.0559 h -3.851958 v 6.1774 H 97.69791 v -3.07682 h -3.573426 v -6.60528 h -7.160802 v 9.6821 h -2.007629 c 4.394527,14.49484 17.755507,24.40755 32.901867,24.41039 15.1477,-0.001 28.51057,-9.91427 32.90548,-24.41039 h -2.10426 v -4.63124 h -3.62562 V 127.678 c 0,-0.13059 -0.10506,-0.23565 -0.23564,-0.23564 h -9.34207 c -0.13058,-10e-6 -0.23564,0.10505 -0.23564,0.23564 v 4.29483 c -0.99514,-0.47679 -2.14272,-0.72932 -3.31349,-0.72916 -2.35419,0.001 -4.51034,1.01876 -5.58726,2.63705 v -3.70571 h -6.16552 v -8.8837 l -1.0697,-4.54287 h -0.41393 z"
       sodipodi:nodetypes="cccccccccccccccccccccccsccsccccccccc" />
    <path
       style="fill:none;fill-opacity:1;stroke:#c500a0;stroke-width:1;stroke-linecap:butt;stroke-linejoin:round;stroke-miterlimit:4;stroke-dasharray:none;stroke-opacity:1;filter:url(#filter32495)"
       d="m 115.56194,133.53036 v 8.54227 h 2.52461 c 0,0 4.86017,-5.24417 4.88425,2.70009 0.0241,7.94427 -4.88425,2.7001 -4.88425,2.7001 h -2.52461 v 13.34223"
       id="path1815"
       sodipodi:nodetypes="ccczccc" />
    <path
       id="path32693"
       style="fill:none;stroke:#ff1ad4;stroke-width:0.8;stroke-linecap:round;stroke-linejoin:round;stroke-miterlimit:4;stroke-dasharray:none;stroke-opacity:1;filter:url(#filter33108)"
       d="m 117.85792,107.27873 -0.81235,9.46971 h -0.41341 l -1.07022,4.54287 v 12.23905 h -3.55534 v -9.98647 h -8.15713 v 7.0559 h -3.851958 v 6.1774 H 97.69791 v -3.07682 h -3.573426 v -6.60528 h -7.160802 v 9.6821 h -2.007629 c 4.394527,14.49484 17.755507,24.40755 32.901867,24.41039 15.1477,-0.001 28.51057,-9.91427 32.90548,-24.41039 h -2.10426 v -4.63124 h -3.62562 V 127.678 c 0,-0.13059 -0.10506,-0.23565 -0.23564,-0.23564 h -9.34207 c -0.13058,-10e-6 -0.23564,0.10505 -0.23564,0.23564 v 4.29483 c -0.99514,-0.47679 -2.14272,-0.72932 -3.31349,-0.72916 -2.35419,0.001 -4.51034,1.01876 -5.58726,2.63705 v -3.70571 h -6.16552 v -8.8837 l -1.0697,-4.54287 h -0.41393 z"
       sodipodi:nodetypes="cccccccccccccccccccccccsccsccccccccc" />
    <path
       style="fill:none;fill-opacity:1;stroke:#ff1ad4;stroke-width:0.8;stroke-linecap:butt;stroke-linejoin:round;stroke-miterlimit:4;stroke-dasharray:none;stroke-opacity:1;filter:url(#filter33104)"
       d="m 115.56194,133.53036 v 8.54227 h 2.52461 c 0,0 4.86017,-5.24417 4.88425,2.70009 0.0241,7.94427 -4.88425,2.7001 -4.88425,2.7001 h -2.52461 v 13.34223"
       id="path32695"
       sodipodi:nodetypes="ccczccc" />
    <path
       id="path33340"
       style="fill:none;stroke:#ff9feb;stroke-width:0.6;stroke-linecap:round;stroke-linejoin:round;stroke-miterlimit:4;stroke-dasharray:none;stroke-opacity:1;filter:url(#filter33350)"
       d="m 117.85792,107.27873 -0.81235,9.46971 h -0.41341 l -1.07022,4.54287 v 12.23905 h -3.55534 v -9.98647 h -8.15713 v 7.0559 h -3.851958 v 6.1774 H 97.69791 v -3.07682 h -3.573426 v -6.60528 h -7.160802 v 9.6821 h -2.007629 c 4.394527,14.49484 17.755507,24.40755 32.901867,24.41039 15.1477,-0.001 28.51057,-9.91427 32.90548,-24.41039 h -2.10426 v -4.63124 h -3.62562 V 127.678 c 0,-0.13059 -0.10506,-0.23565 -0.23564,-0.23564 h -9.34207 c -0.13058,-10e-6 -0.23564,0.10505 -0.23564,0.23564 v 4.29483 c -0.99514,-0.47679 -2.14272,-0.72932 -3.31349,-0.72916 -2.35419,0.001 -4.51034,1.01876 -5.58726,2.63705 v -3.70571 h -6.16552 v -8.8837 l -1.0697,-4.54287 h -0.41393 z"
       sodipodi:nodetypes="cccccccccccccccccccccccsccsccccccccc" />
    <path
       style="fill:none;fill-opacity:1;stroke:#ff9feb;stroke-width:0.6;stroke-linecap:butt;stroke-linejoin:round;stroke-miterlimit:4;stroke-dasharray:none;stroke-opacity:1;filter:url(#filter33346)"
       d="m 115.56194,133.53036 v 8.54227 h 2.52461 c 0,0 4.86017,-5.24417 4.88425,2.70009 0.0241,7.94427 -4.88425,2.7001 -4.88425,2.7001 h -2.52461 v 13.34223"
       id="path33342"
       sodipodi:nodetypes="ccczccc" />
    <path
       id="path34150"
       style="fill:none;stroke:#ffd1f5;stroke-width:0.4;stroke-linecap:round;stroke-linejoin:round;stroke-miterlimit:4;stroke-dasharray:none;stroke-opacity:1"
       d="m 117.85792,107.27873 -0.81235,9.46971 h -0.41341 l -1.07022,4.54287 v 12.23905 h -3.55534 v -9.98647 h -8.15713 v 7.0559 h -3.851958 v 6.1774 H 97.69791 v -3.07682 h -3.573426 v -6.60528 h -7.160802 v 9.6821 h -2.007629 c 4.394527,14.49484 17.755507,24.40755 32.901867,24.41039 15.1477,-0.001 28.51057,-9.91427 32.90548,-24.41039 h -2.10426 v -4.63124 h -3.62562 V 127.678 c 0,-0.13059 -0.10506,-0.23565 -0.23564,-0.23564 h -9.34207 c -0.13058,-10e-6 -0.23564,0.10505 -0.23564,0.23564 v 4.29483 c -0.99514,-0.47679 -2.14272,-0.72932 -3.31349,-0.72916 -2.35419,0.001 -4.51034,1.01876 -5.58726,2.63705 v -3.70571 h -6.16552 v -8.8837 l -1.0697,-4.54287 h -0.41393 z"
       sodipodi:nodetypes="cccccccccccccccccccccccsccsccccccccc" />
    <path
       style="fill:none;fill-opacity:1;stroke:#ffd1f5;stroke-width:0.4;stroke-linecap:round;stroke-linejoin:round;stroke-miterlimit:4;stroke-dasharray:none;stroke-opacity:1"
       d="m 115.56194,133.53036 v 8.54227 h 2.52461 c 0,0 4.86017,-5.24417 4.88425,2.70009 0.0241,7.94427 -4.88425,2.7001 -4.88425,2.7001 h -2.52461 v 13.34223"
       id="path34152"
       sodipodi:nodetypes="ccczccc" />
  </g>
</svg>
